<?xml version="1.0" standalone="no"?><!DOCTYPE svg PUBLIC "-//W3C//DTD SVG 1.1//EN" "http://www.w3.org/Graphics/SVG/1.1/DTD/svg11.dtd"><svg t="1559455351361" class="icon" style="" viewBox="0 0 1024 1024" version="1.1" xmlns="http://www.w3.org/2000/svg" p-id="1425" xmlns:xlink="http://www.w3.org/1999/xlink" width="200" height="200"><defs><style type="text/css"></style></defs><path d="M512 450.13516084c103.32822486 0 187.86949974-84.54127488 187.86949974-187.86949975S615.32822486 74.39616137 512 74.39616137s-187.86949974 84.54127488-187.86949974 187.86949972 84.54127488 187.86949974 187.86949974 187.86949975z m-22.54433996 180.35471973c-9.39347499-7.51477999-15.02955997-16.90825497-15.02955999-30.05911996 0-20.66564497 16.90825497-37.57389995 37.57389995-37.57389994s37.57389995 16.90825497 37.57389995 37.57389994c0 13.15086498-5.63608499 22.54433996-15.02955999 30.05911996l50.72476493 178.47602475c3.75739 13.15086498 0 26.30172996-9.39347498 35.69520496l-50.72476493 50.72476492c-7.51477999 7.51477999-18.78694998 7.51477999-26.30172996 0L448.12437009 844.66111028c-9.39347499-9.39347499-13.15086498-22.54433996-9.39347498-35.69520496l50.72476493-178.47602475zM348.55353523 468.9221108c-60.11823991-48.84606992-99.57083485-122.11517483-99.57083486-206.65644971 0-144.65951479 118.35778483-263.01729963 263.01729963-263.01729962s263.01729963 118.35778483 263.01729963 263.01729962c0 82.66257988-39.45259494 157.81037977-99.57083486 206.65644971C863.31596451 523.40426573 1000.46069931 696.24420549 1000.46069931 901.02196019c0 61.99693492-50.72476493 112.72169984-112.72169984 112.72169985H136.26100053c-61.99693492 0-112.72169984-50.72476493-112.72169984-112.72169985 0-204.77775472 137.14473481-377.61769447 325.01423454-432.09984939zM887.73899947 938.59586013c20.66564497 0 37.57389995-16.90825497 37.57389994-37.57389994 0-206.65644971-169.08254976-375.73899947-375.73899946-375.73899946h-75.1477999c-206.65644971 0-375.73899947 169.08254976-375.73899946 375.73899946 0 20.66564497 16.90825497 37.57389995 37.57389994 37.57389994h751.47799894z" p-id="1426"></path></svg>