<?xml version="1.0" standalone="no"?><!DOCTYPE svg PUBLIC "-//W3C//DTD SVG 1.1//EN" "http://www.w3.org/Graphics/SVG/1.1/DTD/svg11.dtd"><svg t="1559455354950" class="icon" style="" viewBox="0 0 1024 1024" version="1.1" xmlns="http://www.w3.org/2000/svg" p-id="1545" xmlns:xlink="http://www.w3.org/1999/xlink" width="200" height="200"><defs><style type="text/css"></style></defs><path d="M259.988 260.201L200.605 576.67h247.67l13.877-73.957H319.397l45.506-242.512zM253 676.53c-69.847 0-126.47 56.622-126.47 126.47S183.153 929.47 253 929.47 379.47 872.848 379.47 803 322.847 676.53 253 676.53z m0 172.94c-25.624 0-46.47-20.847-46.47-46.47s20.846-46.47 46.47-46.47 46.47 20.847 46.47 46.47-20.846 46.47-46.47 46.47zM786.973 676.53c-69.847 0-126.469 56.622-126.469 126.47s56.622 126.47 126.469 126.47c69.848 0 126.471-56.622 126.471-126.47S856.82 676.53 786.973 676.53z m0 172.94c-25.623 0-46.469-20.847-46.469-46.47s20.846-46.47 46.469-46.47c25.624 0 46.471 20.847 46.471 46.47s-20.847 46.47-46.471 46.47z" p-id="1546"></path><path d="M996.635 688.748l1.569-9.727c4.752-2.272 8.061-7.118 8.061-12.716V641.468c1.063-0.658 1.769-1.777 1.769-3.038v-30.845c0-1.262-0.706-2.384-1.769-3.044v-48.236c0-7.037-0.382-16.182-1.109-26.806l0.005 0.005c0-2.299-0.477-7.813-0.865-12.095-5.503-58.025-18.389-143.789-34.221-188.102l-0.012-0.056a249.828 249.828 0 0 0-1.537-4.239h-0.014v-0.007a202.326 202.326 0 0 0-2.813-7.125c-7.268-17.34-14.102-28.121-30.084-28.121H755.719l-1.434-15.982c-0.067-0.769-0.76-1.409-1.537-1.409h-14.16c-0.777 0-1.464 0.641-1.537 1.409l-1.436 15.982H693.64c-7.76 0-14.102 6.35-14.102 14.108v262.135h-20.077l-1.471-1.313V109.729c0-8.348-8.065-15.198-17.922-15.198H17.958c-9.864 0-17.952 6.85-17.952 15.198v618.269c0 6.863 5.48 12.436 12.301 12.607h86.369c9.33-22.992 30.075-62.854 66.325-80.014H80V174.53h497.984v549.651s-170.78-14.555-178.667-15.521c12.281 22.558 19.491 63.255 20.104 90.552l0.967 0.17h10.446l4.573-10.236 185.136 17.034c-0.02-1.059-0.04-2.117-0.04-3.181 0-5.856 0.308-12.979 0.901-20.551 3.441-31.916 17.941-88.707 75.573-123.821a60.11 60.11 0 0 0 7.076-2.628c3.741-1.675 7.853-4.249 12.091-7.472l0.001-0.001s130.646-52.899 205.917 57.12c28.938 40.354 22.7 62.319 27.244 82.298l17.803-6.952h50.893c3.298 0 5.992-2.701 5.992-5.992V688.748h-27.359z m-67.37-122.744H759.503V369.627l133.747 0.13c12.939 36.431 28.734 94.583 34.299 153.169 0.108 1.192 0.197 2.208 0.271 3.077a182 182 0 0 1 0.341 4.383 60.9 60.9 0 0 0 0.135 3.213c0.801 11.695 0.969 18.803 0.969 22.706v9.699z" p-id="1547"></path></svg>