<?xml version="1.0" standalone="no"?><!DOCTYPE svg PUBLIC "-//W3C//DTD SVG 1.1//EN" "http://www.w3.org/Graphics/SVG/1.1/DTD/svg11.dtd"><svg t="1559455365796" class="icon" style="" viewBox="0 0 1024 1024" version="1.1" xmlns="http://www.w3.org/2000/svg" p-id="1786" xmlns:xlink="http://www.w3.org/1999/xlink" width="200" height="200"><defs><style type="text/css"></style></defs><path d="M310.7102019 210.41528665c0-111.17009906 90.12074741-201.28874971 201.28874973-201.2887497 111.17009906 0 201.28874971 90.11865065 201.2887497 201.2887497 0 111.16695393-90.11865065 201.28874971-201.2887497 201.28874973C400.83094931 411.70403638 310.7102019 321.58328896 310.7102019 210.41528665zM780.46677318 478.80028628l-37.1388227 0L534.59151702 902.60116826l78.05180946-390.25275702-100.64437485-100.64437486-100.64437487 100.64437486 78.05180945 390.25275702L280.67204952 478.80028628l-37.13567756 0C109.42250056 478.80028628 109.42250056 568.94514641 109.42250056 680.08798762l0 335.48020115 805.15290212 0L914.57540268 680.08798762C914.57540268 568.94514641 914.57540268 478.80028628 780.46677318 478.80028628z" p-id="1787"></path></svg>