<?xml version="1.0" standalone="no"?><!DOCTYPE svg PUBLIC "-//W3C//DTD SVG 1.1//EN" "http://www.w3.org/Graphics/SVG/1.1/DTD/svg11.dtd"><svg t="1559455879349" class="icon" style="" viewBox="0 0 1024 1024" version="1.1" xmlns="http://www.w3.org/2000/svg" p-id="1149" xmlns:xlink="http://www.w3.org/1999/xlink" width="200" height="200"><defs><style type="text/css"></style></defs><path d="M617.77001198 1.13987679L394.40334871 1.13987679c-27.39700639 0-49.30046046 24.37608353-49.30046046 54.50630445 0 30.19978929 21.94354504 54.64779991 49.30046046 54.64779991l224.74859861 0c26.01860737 0 47.95507747-24.44801061 47.95507749-54.64779991C667.112921 25.51478041 645.2023908 1.13987679 617.77001198 1.13987679L617.77001198 1.13987679 617.77001198 1.13987679zM860.30927239 37.5194687l-111.23054713 0c1.13078277 5.97227619 1.78401819 12.01294202 1.78401818 18.12671254 0.03419482 45.88099338-33.2490108 91.03682544-72.84054337 91.03682544L336.30070812 146.68300668c-41.66679543 0-74.99480828-45.15583093-74.99480825-91.03682544 0.04008982-6.11377166 0.69332638-12.15443635 1.82410917-18.12671254l-112.57475134 0c-90.49206836 0-112.72450055 51.30261747-112.72450054 125.31049714l0 733.08657117c0 79.5014297 31.83641697 123.99695025 119.55753852 123.99695026l696.08086262 0c87.72230034 0 130.36541311-34.88681725 130.36541311-123.95685928L983.83457141 162.8287859c0.00707496-74.00080471-39.91697207-125.30342218-123.52412026-125.30342219l0 0L860.31045115 37.5194687zM746.02950375 761.32867108L262.3270233 761.32867108c-17.82839406 0-35.62612963-21.87043919-35.62612963-39.72713189 0-17.79655679 15.06334228-33.0414844 32.89291511-33.04148437l482.32172273 0c17.82367666 0 32.88584015 13.85709493 34.23829812 33.04148437C776.15382963 739.4641269 763.85318155 761.32867108 746.02950375 761.32867108L746.02950375 761.32867108 746.02950375 761.32867108zM747.9951084 567.22321319L264.28673176 567.22321319c-17.83075159 0-29.18338212-19.17023956-29.18338213-37.03990338 0-17.86376765 15.07041723-35.72871405 32.89291513-35.72871405l482.32172272 0c17.83075159 0 32.89291512 16.55139954 34.23829811 35.72871405C784.55746437 548.0470786 765.78577015 567.22321319 747.9951084 567.22321319L747.9951084 567.22321319 747.9951084 567.22321319zM747.9951084 367.86828519L264.28673176 367.86828519c-17.83075159 0-29.18338212-19.17731452-29.18338213-37.03990337 0-17.86494641 15.07041723-35.72871405 32.89291513-35.72871405l482.32172272 0c17.83075159 0 32.89291512 16.55847449 34.23829811 35.72871405C784.55746437 348.69097069 765.78577015 367.86828519 747.9951084 367.86828519L747.9951084 367.86828519 747.9951084 367.86828519zM747.9951084 367.86828519" p-id="1150"></path></svg>