<?xml version="1.0" standalone="no"?><!DOCTYPE svg PUBLIC "-//W3C//DTD SVG 1.1//EN" "http://www.w3.org/Graphics/SVG/1.1/DTD/svg11.dtd"><svg t="1559455343608" class="icon" style="" viewBox="0 0 1024 1024" version="1.1" xmlns="http://www.w3.org/2000/svg" p-id="1183" xmlns:xlink="http://www.w3.org/1999/xlink" width="200" height="200"><defs><style type="text/css"></style></defs><path d="M1003.50001033 337.21731186L866.69761549 109.16878844c-7.61497706-12.82522451-21.64256637-20.70739374-36.60532829-20.70739375H196.57963459c-2.80551787 0-5.61103573 0.26719218-8.2829575 0.80157655-0.93517263 0.13359609-1.73674915 0.40078827-2.67192178 0.66798043-1.73674915 0.40078827-3.4734983 1.0687687-5.21024748 1.73674915-8.55014968 3.4734983-15.76433847 9.75251448-20.44020155 17.50108762L23.17191145 337.21731186c-9.21813012 15.36355021-7.74857314 35.13577132 3.60709439 49.02976455l453.55872114 554.42376811c8.14936142 10.01970665 20.17300939 15.63074238 32.99823391 15.63074237s24.84887249-5.74463181 32.9982339-15.63074237l453.55872115-554.42376811c11.48926363-14.02758931 12.82522451-33.66621436 3.60709439-49.02976455z m-44.75468972 21.37537419L513.33596089 902.9967475 67.92660116 358.59268605l132.39372391-220.70073854h625.89767555l132.52731999 220.70073854z" p-id="1184"></path><path d="M513.33596089 963.64937176c-15.09635802 0-29.25754343-6.67980443-38.74286573-18.43626023l-453.55872114-554.4237681c-13.35960888-16.29872281-14.96276194-39.41084617-4.14147875-57.44631816l136.80239483-228.04852339c5.47743963-9.21813012 14.02758931-16.565915 24.04729598-20.57379767 2.00394133-0.80157654 4.00788267-1.46955698 6.01182399-2.00394133 1.0687687-0.26719218 2.13753742-0.53438436 3.20630612-0.66798044 3.20630612-0.66798044 6.41261226-0.93517263 9.75251448-0.93517262h633.51265262c17.50108762 0 33.93340653 9.35172621 42.88434447 24.31448814l136.80239483 228.04852341c10.82128318 18.03547198 9.21813012 41.14759532-4.14147876 57.44631813L552.07882662 945.21311153c-9.4853223 11.75645581-23.6465077 18.43626025-38.74286573 18.43626023zM196.57963459 95.80917958c-2.27113351 0-4.6758631 0.26719218-6.81340053 0.66798043-0.80157654 0.13359609-1.46955698 0.26719218-2.2711335 0.53438437-1.46955698 0.40078827-2.93911395 0.93517263-4.27507485 1.46955697-7.08059269 2.80551787-13.09241669 8.01576532-16.96670327 14.56197367L29.45092762 340.95800234c-7.61497706 12.82522451-6.41261226 29.12394733 2.93911395 40.61321096l453.55872113 554.4237681c6.67980443 8.28295749 16.69951108 12.95882061 27.38719819 12.95882061s20.57379767-4.6758631 27.38719817-12.95882061l453.55872115-554.4237681c9.4853223-11.48926363 10.55409101-27.78798645 2.93911395-40.61321096L860.41859933 112.90947893c-6.41261226-10.55409101-18.03547198-17.10029935-30.32631213-17.10029935H196.57963459zM513.33596089 914.61960722L58.97566322 359.26066648l137.20318309-228.71650384h634.31422915l137.2031831 228.71650384-3.33990223 4.00788266L513.33596089 914.61960722zM76.87753911 357.9247056L513.33596089 891.37388779l436.45842179-533.44918219-127.71786082-212.68497321H204.59539989l-127.71786078 212.68497321z" p-id="1185"></path><path d="M780.52813828 321.98735774c-0.80157654-8.55014968-4.94305529-16.16512674-11.62285971-21.64256637-13.62680105-11.22207145-33.93340653-9.21813012-45.15547798 4.40867094L503.31625424 573.54879277l-220.43354636-268.79533046c-11.22207145-13.62680105-31.39508085-15.63074238-45.15547799-4.40867094-6.67980443 5.47743963-10.68768709 13.09241669-11.62285972 21.64256637-0.80157654 8.55014968 1.73674915 16.83310717 7.08059272 23.51291162l244.61443841 298.32006606c5.47743963 6.67980443 13.09241669 10.68768709 21.64256636 11.6228597 1.2023648 0.13359609 2.53832569 0.26719218 3.74069048 0.1335961h0.53438437c1.0687687 0 2.13753742 0 3.20630612-0.1335961 8.55014968-0.80157654 16.16512674-4.94305529 21.64256637-11.6228597l244.61443841-298.32006606c5.74463181-6.67980443 8.28295749-15.09635802 7.34778487-23.51291162z" p-id="1186"></path></svg>